<svg width="225" height="40" viewBox="0 0 225 40" fill="none" xmlns="http://www.w3.org/2000/svg">
<path d="M82.8294 30.7678C81.3663 30.7678 80.0165 30.5327 78.7798 30.0624C77.5432 29.5921 76.4633 28.9302 75.5402 28.0768C74.6344 27.2059 73.929 26.1957 73.4239 25.0461C72.9188 23.8966 72.6663 22.6338 72.6663 21.2578C72.6663 19.8818 72.9188 18.619 73.4239 17.4695C73.929 16.3199 74.6344 15.3184 75.5402 14.4649C76.4633 13.5941 77.5432 12.9235 78.7798 12.4532C80.0165 11.9829 81.3663 11.7478 82.8294 11.7478C84.3099 11.7478 85.6598 11.9829 86.879 12.4532C88.1157 12.9235 89.1868 13.5941 90.0926 14.4649C90.9983 15.3184 91.7037 16.3199 92.2088 17.4695C92.7313 18.619 92.9926 19.8818 92.9926 21.2578C92.9926 22.6338 92.7313 23.9053 92.2088 25.0723C91.7037 26.2218 90.9983 27.2233 90.0926 28.0768C89.1868 28.9302 88.1157 29.5921 86.879 30.0624C85.6598 30.5327 84.3099 30.7678 82.8294 30.7678ZM82.8294 26.4831C83.5261 26.4831 84.1706 26.3612 84.7628 26.1173C85.3724 25.8735 85.8949 25.5251 86.3304 25.0723C86.7832 24.602 87.1316 24.0446 87.3754 23.4002C87.6367 22.7557 87.7673 22.0416 87.7673 21.2578C87.7673 20.4566 87.6367 19.7425 87.3754 19.1154C87.1316 18.471 86.7832 17.9223 86.3304 17.4695C85.8949 16.9992 85.3724 16.6421 84.7628 16.3983C84.1706 16.1545 83.5261 16.0325 82.8294 16.0325C82.1327 16.0325 81.4796 16.1545 80.8699 16.3983C80.2777 16.6421 79.7552 16.9992 79.3024 17.4695C78.8669 17.9223 78.5186 18.471 78.2573 19.1154C78.0135 19.7425 77.8915 20.4566 77.8915 21.2578C77.8915 22.0416 78.0135 22.7557 78.2573 23.4002C78.5186 24.0446 78.8669 24.602 79.3024 25.0723C79.7552 25.5251 80.2777 25.8735 80.8699 26.1173C81.4796 26.3612 82.1327 26.4831 82.8294 26.4831Z" fill="#292929"/>
<path d="M97.0083 30.402V12.1136H106.362C108.765 12.1136 110.559 12.5577 111.744 13.446C112.928 14.3169 113.52 15.4665 113.52 16.8947C113.52 17.8352 113.268 18.6626 112.762 19.3767C112.275 20.0734 111.578 20.6308 110.672 21.0488C109.784 21.4494 108.722 21.6497 107.485 21.6497L108.007 20.3956C109.296 20.3956 110.42 20.5959 111.378 20.9965C112.336 21.3797 113.076 21.9458 113.599 22.6948C114.138 23.4263 114.408 24.3233 114.408 25.3858C114.408 26.9708 113.764 28.2074 112.475 29.0957C111.204 29.9666 109.34 30.402 106.884 30.402H97.0083ZM102.129 26.666H106.466C107.354 26.666 108.025 26.5179 108.478 26.2218C108.948 25.9083 109.183 25.438 109.183 24.811C109.183 24.184 108.948 23.7224 108.478 23.4263C108.025 23.1128 107.354 22.956 106.466 22.956H101.763V19.3767H105.682C106.553 19.3767 107.206 19.2287 107.642 18.9326C108.077 18.6365 108.295 18.1923 108.295 17.6001C108.295 17.0079 108.077 16.5725 107.642 16.2938C107.206 15.9977 106.553 15.8496 105.682 15.8496H102.129V26.666Z" fill="#292929"/>
<path d="M118.394 30.402V12.1136H122.653L130.229 24.5497H127.983L135.35 12.1136H139.609L139.661 30.402H134.906L134.854 19.3506H135.664L130.151 28.5993H127.852L122.182 19.3506H123.175V30.402H118.394Z" fill="#292929"/>
<path d="M149.383 19.1938H157.874V23.0605H149.383V19.1938ZM149.748 26.4047H159.311V30.402H144.628V12.1136H158.971V16.1109H149.748V26.4047Z" fill="#292929"/>
<path d="M163.488 30.402V12.1136H167.746L177.831 24.2885H175.819V12.1136H180.888V30.402H176.629L166.544 18.2271H168.556V30.402H163.488Z" fill="#292929"/>
<path d="M190.467 26.3524L190.18 20.5524L198.044 12.1136H203.74L195.902 20.6046L193.028 23.6092L190.467 26.3524ZM185.843 30.402V12.1136H190.964V30.402H185.843ZM198.122 30.402L192.166 22.8515L195.536 19.2461L204.132 30.402H198.122Z" fill="#292929"/>
<path d="M203.733 30.402L211.806 12.1136H216.901L225 30.402H219.618L213.295 14.6478H215.333L209.011 30.402H203.733ZM208.148 26.8488L209.481 23.0344H218.416L219.749 26.8488H208.148Z" fill="#292929"/>
<path d="M33.9914 5.60553H14.6479C13.9044 5.60553 13.1913 5.31024 12.6656 4.78462C12.1398 4.259 11.8445 3.54611 11.8445 2.80277C11.8445 2.05943 12.1398 1.34653 12.6656 0.820911C13.1913 0.295291 13.9044 0 14.6479 0L33.9914 0C34.7338 0.0016869 35.4452 0.297722 35.9696 0.82316C36.4939 1.3486 36.7884 2.06053 36.7884 2.80277C36.7884 3.545 36.4939 4.25694 35.9696 4.78237C35.4452 5.30781 34.7338 5.60385 33.9914 5.60553Z" fill="#195BCC"/>
<path d="M29.7288 16.7401H10.3853C9.6418 16.7401 8.92875 16.4448 8.40301 15.9191C7.87727 15.3935 7.58191 14.6806 7.58191 13.9373C7.58191 13.1939 7.87727 12.4811 8.40301 11.9554C8.92875 11.4298 9.6418 11.1345 10.3853 11.1345H29.7288C30.4723 11.1345 31.1854 11.4298 31.7111 11.9554C32.2368 12.4811 32.5322 13.1939 32.5322 13.9373C32.5322 14.6806 32.2368 15.3935 31.7111 15.9191C31.1854 16.4448 30.4723 16.7401 29.7288 16.7401Z" fill="#195BCC"/>
<path d="M31.4363 27.9322H12.0928C11.3493 27.9322 10.6363 27.6369 10.1105 27.1113C9.58479 26.5857 9.28943 25.8728 9.28943 25.1294C9.28943 24.3861 9.58479 23.6732 10.1105 23.1476C10.6363 22.622 11.3493 22.3267 12.0928 22.3267H31.4363C31.8045 22.3267 32.169 22.3992 32.5091 22.54C32.8493 22.6809 33.1583 22.8873 33.4186 23.1476C33.6789 23.4078 33.8854 23.7168 34.0263 24.0569C34.1672 24.3969 34.2397 24.7614 34.2397 25.1294C34.2397 25.4975 34.1672 25.862 34.0263 26.202C33.8854 26.542 33.6789 26.851 33.4186 27.1113C33.1583 27.3715 32.8493 27.578 32.5091 27.7188C32.169 27.8597 31.8045 27.9322 31.4363 27.9322Z" fill="#195BCC"/>
<path d="M4.8295 27.9322H2.8034C2.05989 27.9322 1.34684 27.6369 0.821098 27.1113C0.295358 26.5857 0 25.8728 0 25.1294C0 24.3861 0.295358 23.6732 0.821098 23.1476C1.34684 22.622 2.05989 22.3267 2.8034 22.3267H4.8295C5.57301 22.3267 6.28607 22.622 6.81181 23.1476C7.33755 23.6732 7.6329 24.3861 7.6329 25.1294C7.6329 25.8728 7.33755 26.5857 6.81181 27.1113C6.28607 27.6369 5.57301 27.9322 4.8295 27.9322Z" fill="#195BCC"/>
<path d="M35.5268 39.143H9.88202C9.50725 39.1464 9.13551 39.0756 8.78822 38.9347C8.44092 38.7939 8.12493 38.5857 7.85844 38.3222C7.59195 38.0588 7.38023 37.7452 7.23545 37.3996C7.09068 37.0539 7.01573 36.6831 7.0149 36.3084C7.01404 35.9326 7.08776 35.5604 7.23178 35.2133C7.3758 34.8662 7.58726 34.5512 7.85392 34.2863C8.12058 34.0215 8.43714 33.8122 8.78527 33.6706C9.13339 33.5289 9.50617 33.4577 9.88202 33.4611H35.5268C35.9005 33.4611 36.2705 33.5347 36.6157 33.6779C36.9609 33.8211 37.2744 34.0309 37.5384 34.2954C37.8023 34.5599 38.0115 34.8738 38.1539 35.2193C38.2964 35.5647 38.3693 35.9348 38.3684 36.3084C38.3667 37.0608 38.0666 37.7818 37.5339 38.3132C37.0012 38.8446 36.2793 39.143 35.5268 39.143Z" fill="#195BCC"/>
<path d="M56.7816 19.5942C56.7816 24.7779 54.7223 29.7494 51.0567 33.4154C47.391 37.0814 42.4191 39.1418 37.2342 39.1435C36.7436 39.1435 36.2466 39.1435 35.756 39.0798C33.1675 38.8883 30.6435 38.1811 28.3325 36.9996C26.0215 35.8181 23.9703 34.1863 22.2997 32.2003C22.5607 31.776 22.7036 31.2898 22.7137 30.7919C22.7238 30.2939 22.6007 29.8023 22.3572 29.3679C22.1136 28.9334 21.7583 28.5719 21.3282 28.3206C20.8981 28.0694 20.4086 27.9376 19.9104 27.9388H19.56C18.4741 25.654 17.8484 23.1779 17.7187 20.6516C17.8698 20.3038 17.9478 19.9288 17.9481 19.5496C17.9449 19.1796 17.8691 18.8139 17.7251 18.4731C17.8676 15.9443 18.5062 13.4682 19.6046 11.1859H20.624C21.1647 11.1886 21.6945 11.0346 22.1495 10.7425C22.6044 10.4504 22.9649 10.0328 23.1873 9.54012C23.4098 9.04746 23.4847 8.5009 23.4029 7.96659C23.3211 7.43227 23.0862 6.9331 22.7266 6.52948C26.0787 2.78894 30.747 0.488377 35.756 0.108599C36.2466 0.0703793 36.7436 0.0512695 37.2342 0.0512695C39.8012 0.0512695 42.3431 0.556762 44.7147 1.53889C47.0863 2.52101 49.2411 3.96053 51.0563 5.77526C52.8714 7.58999 54.3113 9.74438 55.2936 12.1154C56.276 14.4865 56.7816 17.0278 56.7816 19.5942Z" fill="#003692"/>
<path d="M53.8446 19.5942C53.8439 24.5243 51.9794 29.272 48.6249 32.8856C45.2704 36.4993 40.6737 38.7118 35.7563 39.0798C35.272 39.118 34.7751 39.1435 34.2781 39.1435C29.1212 39.1484 24.1725 37.1099 20.5159 33.4743C21.0371 33.3604 21.5147 33.0995 21.8922 32.7226C22.0487 32.5656 22.1856 32.3902 22.2999 32.2003C22.5609 31.7761 22.7039 31.2898 22.714 30.7919C22.7241 30.2939 22.601 29.8023 22.3574 29.3679C22.1138 28.9334 21.7586 28.5719 21.3284 28.3206C20.8983 28.0694 20.4088 27.9376 19.9107 27.9388H16.5975C15.7612 26.1692 15.1963 24.2838 14.9219 22.346H15.1449C15.8878 22.3435 16.5998 22.0482 17.1264 21.5243C17.3749 21.2715 17.5757 20.9759 17.7189 20.6516C17.87 20.3038 17.948 19.9288 17.9483 19.5496C17.9451 19.1796 17.8693 18.8139 17.7253 18.4731C17.5079 17.9689 17.1478 17.5394 16.6893 17.2372C16.2308 16.935 15.694 16.7734 15.1449 16.7723H14.941C15.2203 14.8345 15.794 12.9506 16.6421 11.1859H20.6243C21.1649 11.1886 21.6948 11.0346 22.1497 10.7425C22.6046 10.4504 22.9651 10.0328 23.1876 9.54012C23.41 9.04746 23.4849 8.5009 23.4031 7.96659C23.3213 7.43227 23.0864 6.9331 22.7268 6.52948C22.4787 6.23457 22.1711 5.99533 21.8242 5.82739C21.4772 5.65945 21.0987 5.56659 20.7135 5.55488C24.3479 2.02785 29.213 0.0539188 34.2781 0.0512695C34.7751 0.0512695 35.272 0.0512695 35.7563 0.108599C40.6737 0.476589 45.2704 2.68914 48.6249 6.30278C51.9794 9.91641 53.8439 14.6641 53.8446 19.5942Z" fill="url(#paint0_linear_123_3457)"/>
<path d="M48.6709 21.9422C49.9703 13.9914 44.5768 6.49282 36.6242 5.19367C28.6716 3.89453 21.1713 9.28677 19.8719 17.2376C18.5724 25.1884 23.9659 32.687 31.9185 33.9861C39.8711 35.2852 47.3714 29.893 48.6709 21.9422Z" fill="url(#paint1_linear_123_3457)"/>
<path d="M45.5172 10.3001C42.7185 7.98806 39.1583 6.80224 35.5319 6.97426C31.9055 7.14629 28.4735 8.6638 25.9064 11.2303C23.3392 13.7969 21.8214 17.2281 21.6493 20.8536C21.4773 24.4792 22.6634 28.0387 24.9759 30.8367C23.4091 29.5423 22.13 27.9349 21.2207 26.1175C20.3114 24.3002 19.792 22.3129 19.6957 20.2831C19.5993 18.2533 19.9282 16.2258 20.6613 14.3305C21.3944 12.4352 22.5155 10.714 23.9527 9.27711C25.3899 7.84022 27.1116 6.7194 29.0073 5.98648C30.903 5.25357 32.931 4.92472 34.9612 5.02103C36.9915 5.11734 38.9792 5.63668 40.797 6.54575C42.6147 7.45483 44.2225 8.73359 45.5172 10.3001Z" fill="url(#paint2_linear_123_3457)"/>
<path d="M35.4439 18.2372V15.1606C36.4427 15.3741 37.3988 15.753 38.2728 16.2817L39.2667 14.1605C38.1137 13.4268 36.8041 12.975 35.4439 12.8419V10.364H33.6344V12.8355C31.3025 13.1286 29.8116 14.4854 29.8116 16.4473C29.8116 18.887 31.7803 19.5877 33.6344 20.1227V23.4797C32.3157 23.2023 31.0923 22.5853 30.0855 21.6897L29.0598 23.76C30.3491 24.8809 31.9491 25.583 33.6471 25.7729V28.3782H35.4566V25.7792C37.7694 25.4862 39.4005 24.1485 39.4005 22.0401C39.4069 19.5049 37.3171 18.7978 35.4439 18.2372ZM32.5194 16.2498C32.5194 15.6574 32.9399 15.2752 33.628 15.1223V17.6194C32.9654 17.3072 32.5194 16.9059 32.5194 16.2498ZM35.4439 23.4988V20.7215C36.1957 21.0336 36.7181 21.4541 36.7181 22.1866C36.7181 22.9191 36.253 23.3141 35.4439 23.4988Z" fill="white"/>
<path d="M35.9408 12.9055V13.3323C37.0783 13.4446 38.1825 13.7801 39.1901 14.3197L39.2666 14.1541C38.2575 13.51 37.1245 13.0847 35.9408 12.9055ZM36.5397 21.5241C36.6289 21.6823 36.6833 21.8577 36.6992 22.0386C36.7151 22.2196 36.6921 22.4018 36.6318 22.5732C36.5714 22.7445 36.4751 22.9009 36.3494 23.032C36.2236 23.1631 36.0712 23.2657 35.9025 23.3331V23.9701C36.7117 23.7854 37.1768 23.3331 37.1768 22.6579C37.1758 22.4303 37.1168 22.2068 37.0053 22.0084C36.8938 21.8099 36.7336 21.6433 36.5397 21.5241ZM33.6407 10.3831V12.8546C31.3088 13.1476 29.8179 14.5044 29.8179 16.4663C29.7958 16.9416 29.8871 17.4154 30.0843 17.8485C30.2815 18.2815 30.5789 18.6615 30.952 18.957C30.5131 18.3848 30.2877 17.6774 30.3148 16.9568C30.3148 15.0013 31.7994 13.6381 34.1377 13.3451V10.8735H35.4565V10.3831H33.6407ZM33.6407 20.4794V23.4987C32.3234 23.2226 31.1019 22.6053 30.0982 21.7088L29.066 23.779C29.2328 23.93 29.4072 24.0725 29.5885 24.2058L30.5888 22.1993C31.5817 23.0899 32.7894 23.7068 34.0931 23.9892V20.6323L33.6407 20.4794ZM33.6407 15.7848V17.6193C33.4865 17.5469 33.3374 17.4639 33.1947 17.3709C33.4176 17.6977 33.7293 17.954 34.0931 18.1098V15.6064C33.9312 15.6464 33.775 15.7063 33.6279 15.7848H33.6407Z" fill="#C4C4C4"/>
<defs>
<linearGradient id="paint0_linear_123_3457" x1="14.9219" y1="19.5942" x2="53.8255" y2="19.5942" gradientUnits="userSpaceOnUse">
<stop stop-color="#669BEF"/>
<stop offset="1" stop-color="#1940B0"/>
</linearGradient>
<linearGradient id="paint1_linear_123_3457" x1="19.6845" y1="19.5937" x2="48.8654" y2="19.5937" gradientUnits="userSpaceOnUse">
<stop stop-color="#72ABFA"/>
<stop offset="1" stop-color="#0E33A6"/>
</linearGradient>
<linearGradient id="paint2_linear_123_3457" x1="19.6813" y1="17.9185" x2="45.5172" y2="17.9185" gradientUnits="userSpaceOnUse">
<stop stop-color="#1D44B3"/>
<stop offset="1" stop-color="#1B42B1"/>
</linearGradient>
</defs>
</svg>
