<svg width="26" height="26" viewBox="0 0 26 26" fill="none" xmlns="http://www.w3.org/2000/svg">
<g clip-path="url(#clip0_414_2455)">
<path d="M0 12.48C0 6.59685 0 3.65531 1.82765 1.82765C3.65531 0 6.59685 0 12.48 0H13.52C19.4032 0 22.3447 0 24.1724 1.82765C26 3.65531 26 6.59685 26 12.48V13.52C26 19.4032 26 22.3447 24.1724 24.1724C22.3447 26 19.4032 26 13.52 26H12.48C6.59685 26 3.65531 26 1.82765 24.1724C0 22.3447 0 19.4032 0 13.52V12.48Z" fill="url(#paint0_linear_414_2455)"/>
<path d="M13.8342 18.7309C7.90832 18.7309 4.52838 14.6684 4.38754 7.90839H7.35588C7.45338 12.8701 9.64166 14.9717 11.375 15.4051V7.90839H14.1701V12.1876C15.8818 12.0034 17.6799 10.0534 18.2865 7.90839H21.0816C20.6158 10.5517 18.6658 12.5017 17.2791 13.3034C18.6658 13.9534 20.8867 15.6542 21.7317 18.7309H18.6549C17.9941 16.6726 16.3476 15.0801 14.1701 14.8634V18.7309H13.8342Z" fill="white"/>
</g>
<defs>
<linearGradient id="paint0_linear_414_2455" x1="-3.5" y1="16.5" x2="33.5" y2="16" gradientUnits="userSpaceOnUse">
<stop stop-color="#669BEF"/>
<stop offset="1" stop-color="#1940B0"/>
</linearGradient>
<clipPath id="clip0_414_2455">
<rect width="26" height="26" fill="white"/>
</clipPath>
</defs>
</svg>
