<svg width="20" height="20" viewBox="0 0 20 20" fill="none" xmlns="http://www.w3.org/2000/svg">
<path d="M10 20C15.5228 20 20 15.5228 20 10C20 4.47715 15.5228 0 10 0C4.47715 0 0 4.47715 0 10C0 15.5228 4.47715 20 10 20Z" fill="#25D366"/>
<path fill-rule="evenodd" clip-rule="evenodd" d="M10.3295 15.5635H10.3271C9.33188 15.5632 8.354 15.3135 7.48548 14.8397L4.33325 15.6666L5.17684 12.5853C4.65647 11.6835 4.38266 10.6606 4.38311 9.61256C4.38441 6.334 7.05193 3.66663 10.3295 3.66663C11.9202 3.66731 13.4132 4.28657 14.5358 5.41055C15.6585 6.53447 16.2764 8.02843 16.2758 9.61725C16.2745 12.8951 13.608 15.5622 10.3295 15.5635ZM7.63153 13.7632L7.812 13.8704C8.57083 14.3207 9.44067 14.5589 10.3275 14.5593H10.3295C13.0536 14.5593 15.2707 12.3421 15.2718 9.61691C15.2723 8.2963 14.7587 7.05458 13.8256 6.12037C12.8925 5.18616 11.6516 4.67143 10.3315 4.67097C7.6053 4.67097 5.38816 6.88792 5.38708 9.6129C5.38669 10.5468 5.64799 11.4563 6.14273 12.2431L6.26024 12.4301L5.76095 14.2539L7.63153 13.7632ZM13.1218 10.8975C13.2254 10.9476 13.2954 10.9814 13.3252 11.0313C13.3624 11.0932 13.3624 11.3907 13.2386 11.7378C13.1148 12.0849 12.5212 12.4016 12.2357 12.4443C11.9797 12.4825 11.6558 12.4985 11.2999 12.3854C11.0841 12.3169 10.8074 12.2255 10.4529 12.0724C9.05999 11.471 8.11868 10.121 7.94077 9.8658C7.92831 9.84793 7.9196 9.83543 7.91473 9.82894L7.91353 9.82734C7.8349 9.72242 7.30805 9.01947 7.30805 8.29195C7.30805 7.60756 7.64423 7.24883 7.79898 7.08371C7.80958 7.0724 7.81933 7.062 7.82806 7.05246C7.96425 6.90371 8.12523 6.86652 8.22427 6.86652C8.32331 6.86652 8.42247 6.86744 8.50903 6.87179C8.51972 6.87232 8.53083 6.87226 8.54231 6.87219C8.6289 6.87168 8.73684 6.87105 8.84333 7.12684C8.88429 7.22527 8.94423 7.3712 9.00745 7.52511C9.1353 7.83637 9.27657 8.18028 9.30142 8.23004C9.33857 8.30442 9.36333 8.39115 9.31381 8.49036C9.30637 8.50523 9.2995 8.51927 9.29293 8.53268C9.25573 8.60862 9.22837 8.66448 9.16523 8.7382C9.14041 8.76718 9.11475 8.79843 9.0891 8.82967C9.03798 8.89192 8.98687 8.95417 8.94236 8.99851C8.86798 9.0726 8.79055 9.15298 8.87722 9.30173C8.96389 9.45048 9.26207 9.93701 9.70377 10.331C10.1786 10.7545 10.5912 10.9335 10.8004 11.0242C10.8413 11.0419 10.8743 11.0563 10.8986 11.0684C11.0471 11.1428 11.1338 11.1304 11.2205 11.0313C11.3072 10.9321 11.5919 10.5974 11.6909 10.4487C11.79 10.3 11.8891 10.3248 12.0252 10.3743C12.1614 10.4239 12.8919 10.7833 13.0405 10.8577C13.0695 10.8722 13.0966 10.8853 13.1218 10.8975Z" fill="#FDFDFD"/>
</svg>
